Coordinates
version=1
nRows=8
nColumns=60
inDegrees=yes

Units are S.I. units (second, meters, Newtons, ...)
If the header above contains a line with 'inDegrees', this indicates whether rotational values are in degrees (yes) or radians (no).

endheader
time	pelvis_tilt	pelvis_list	pelvis_rotation	pelvis_tx	pelvis_ty	pelvis_tz	hip_flexion_r	hip_adduction_r	hip_rotation_r	knee_angle_r_beta	knee_angle_r	ankle_angle_r	subtalar_angle_r	mtp_angle_r	hip_flexion_l	hip_adduction_l	hip_rotation_l	knee_angle_l_beta	knee_angle_l	ankle_angle_l	subtalar_angle_l	mtp_angle_l	L5_S1_Flex_Ext	L5_S1_Lat_Bending	L5_S1_axial_rotation	L4_L5_Flex_Ext	L4_L5_Lat_Bending	L4_L5_axial_rotation	L3_L4_Flex_Ext	L3_L4_Lat_Bending	L3_L4_axial_rotation	L2_L3_Flex_Ext	L2_L3_Lat_Bending	L2_L3_axial_rotation	L1_L2_Flex_Ext	L1_L2_Lat_Bending	L1_L2_axial_rotation	L1_T12_Flex_Ext	L1_T12_Lat_Bending	L1_T12_axial_rotation	Abs_r3	Abs_r2	Abs_r1	Abs_t1	Abs_t2	arm_flex_r	arm_add_r	arm_rot_r	elbow_flex_r	pro_sup_r	wrist_flex_r	wrist_dev_r	arm_flex_l	arm_add_l	arm_rot_l	elbow_flex_l	pro_sup_l	wrist_flex_l	wrist_dev_l
     80.18000000	      0.19275543	      0.13224066	     91.70081122	      0.41359453	      0.93271967	      0.30521919	     12.92976365	     -4.05913937	      1.89480972	      0.29890964	    -17.12626071	      5.94418783	      0.00000000	      0.00000000	     11.64242227	     -6.02412422	     -0.36344686	      0.22141169	    -12.68595566	      4.35062323	      0.00000000	      0.00000000	     -6.75056653	      0.10415643	     -0.33685567	    -12.53647710	      0.13852805	     -0.35790915	    -11.09050575	      0.25324594	     -0.35790915	     -7.71522248	      0.25324594	     -0.29474871	     -6.26857608	      0.21239579	     -0.27369523	     -3.85727371	      0.16133831	     -0.25264175	    -48.21862165	      1.17823834	     -1.87349020	      0.00000000	      0.00000000	     87.64050589	    -16.58175928	     28.09530707	     36.80139202	     56.24912924	     22.39141421	     21.78645905	     89.03971254	    -19.65561955	     34.30857133	     33.32337450	     51.47295736	     28.60445128	     12.53247411
     80.19000000	      0.20591028	     -0.04776506	     91.74907959	      0.41356148	      0.93227759	      0.30760259	     13.24098294	     -4.05697895	      1.87893952	      0.29733695	    -17.03615239	      5.92566510	      0.00000000	      0.00000000	     11.95617026	     -6.01802363	     -0.38870370	      0.21945749	    -12.57398782	      4.32148155	      0.00000000	      0.00000000	     -6.78298276	      0.10343465	     -0.33886682	    -12.59667729	      0.13756809	     -0.36004600	    -11.14376238	      0.25149101	     -0.36004600	     -7.75227100	      0.25149101	     -0.29650847	     -6.29867779	      0.21092394	     -0.27532929	     -3.87579635	      0.16022027	     -0.25415012	    -48.45016757	      1.17007345	     -1.88467560	      0.00000000	      0.00000000	     88.17885725	    -16.58051698	     28.02006815	     36.77570731	     56.24263505	     22.37874366	     21.77834873	     89.52434364	    -19.59647796	     34.23151674	     33.36840514	     51.45319678	     28.59595559	     12.52831217
     80.20000000	      0.20885467	     -0.21242321	     91.80638820	      0.41348245	      0.93185066	      0.31000173	     13.54683610	     -4.06982236	      1.87957513	      0.29613938	    -16.96753665	      5.86390363	      0.00000000	      0.00000000	     12.27116182	     -5.99641684	     -0.36862737	      0.21785832	    -12.48236210	      4.22714928	      0.00000000	      0.00000000	     -6.81084177	      0.10378953	     -0.33793350	    -12.64841424	      0.13804008	     -0.35905435	    -11.18953194	      0.25235387	     -0.35905435	     -7.78411105	      0.25235387	     -0.29569181	     -6.32454766	      0.21164762	     -0.27457097	     -3.89171498	      0.16076999	     -0.25345013	    -48.64916165	      1.17408796	     -1.87948475	      0.00000000	      0.00000000	     88.73727213	    -16.59280744	     27.95025366	     36.61519713	     56.22649708	     22.35719935	     21.78447657	     89.98931342	    -19.48924537	     34.16190769	     33.36930241	     51.40880122	     28.58516610	     12.54806552
     80.21000000	      0.23470360	     -0.43027508	     91.91910690	      0.41338430	      0.93133479	      0.31257504	     13.97471652	     -4.06207008	      1.91678001	      0.29713950	    -17.02483906	      5.44125966	      0.00000000	      0.00000000	     12.69501164	     -5.97815072	     -0.03852807	      0.21732284	    -12.45168136	      3.60911564	      0.00000000	      0.00000000	     -6.80537779	      0.10800315	     -0.34875709	    -12.63826709	      0.14364419	     -0.37055440	    -11.18055517	      0.26259887	     -0.37055440	     -7.77786628	      0.26259887	     -0.30516245	     -6.31947382	      0.22024003	     -0.28336513	     -3.88859287	      0.16729689	     -0.26156781	    -48.61013302	      1.22175328	     -1.93968229	      0.00000000	      0.00000000	     89.65941637	    -16.14950287	     28.18470114	     35.06391821	     56.08643781	     22.25949948	     21.99893056	     90.53367434	    -19.05916397	     34.14818958	     32.51709705	     50.97088730	     28.50783110	     12.95399015
     80.22000000	      0.23266001	     -0.54466108	     92.01273716	      0.41326493	      0.93099191	      0.31481572	     14.20288554	     -4.09063381	      1.88714418	      0.29576881	    -16.94630480	      5.45338118	      0.00000000	      0.00000000	     12.93988272	     -5.94513926	     -0.09033219	      0.21545726	    -12.34479150	      3.62370156	      0.00000000	      0.00000000	     -6.82496171	      0.11033293	     -0.35696533	    -12.67463639	      0.14674279	     -0.37927567	    -11.21272960	      0.26826347	     -0.37927567	     -7.80024874	      0.26826347	     -0.31234467	     -6.33765944	      0.22499090	     -0.29003433	     -3.89978312	      0.17090570	     -0.26772400	    -48.75001901	      1.24810812	     -1.98533410	      0.00000000	      0.00000000	     90.12316307	    -16.15261140	     28.14757458	     35.00356837	     56.06268420	     22.24978206	     22.00568855	     90.91659552	    -19.00182800	     34.10444108	     32.53935878	     50.90565174	     28.50227388	     12.99583675
     80.23000000	      0.22376006	     -0.62980301	     92.11607742	      0.41313590	      0.93069718	      0.31705067	     14.41558855	     -4.12523501	      1.87086485	      0.29512162	    -16.90922330	      5.40295943	      0.00000000	      0.00000000	     13.16764009	     -5.90398791	     -0.08203352	      0.21398141	    -12.26023145	      3.54922640	      0.00000000	      0.00000000	     -6.83705019	      0.11242710	     -0.36773037	    -12.69708590	      0.14952804	     -0.39071352	    -11.23258975	      0.27335525	     -0.39071352	     -7.81406466	      0.27335525	     -0.32176407	     -6.34888480	      0.22926134	     -0.29878093	     -3.90669048	      0.17414958	     -0.27579778	    -48.83636578	      1.27179784	     -2.04520600	      0.00000000	      0.00000000	     90.59516988	    -16.11584694	     28.15817835	     34.81467786	     56.03795486	     22.23038086	     22.03583444	     91.28196571	    -18.90392036	     34.10337576	     32.48424607	     50.81786500	     28.48783802	     13.07134315
     80.24000000	      0.19650479	     -0.74299076	     92.26759397	      0.41295070	      0.93039355	      0.31938105	     14.74721935	     -4.19461405	      1.77558598	      0.29774150	    -17.05933144	      4.98068774	      0.00000000	      0.00000000	     13.43914555	     -5.82301545	      0.26751945	      0.21234873	    -12.16668595	      2.91975169	      0.00000000	      0.00000000	     -6.81933936	      0.11398722	     -0.40872929	    -12.66419513	      0.15160300	     -0.43427487	    -11.20349264	      0.27714853	     -0.43427487	     -7.79382296	      0.27714853	     -0.35763813	     -6.33243853	      0.23244274	     -0.33209255	     -3.89657051	      0.17656621	     -0.30654697	    -48.70985914	      1.28944625	     -2.27322970	      0.00000000	      0.00000000	     91.42330797	    -15.55815418	     28.79486162	     33.19800401	     55.93656769	     22.09857152	     22.36712839	     91.83155037	    -18.67378055	     34.58003861	     31.52261721	     50.26827531	     28.34942191	     13.68958161
     80.25000000	      0.18047532	     -0.62932813	     92.36883999	      0.41276338	      0.93041547	      0.32143779	     14.75303770	     -4.23608136	      1.81031835	      0.29790975	    -17.06897115	      4.94444234	      0.00000000	      0.00000000	     13.42880067	     -5.78041200	      0.28211331	      0.21084158	    -12.08033272	      2.85809412	      0.00000000	      0.00000000	     -6.84632980	      0.11858930	     -0.45503624	    -12.71431907	      0.15772377	     -0.48347601	    -11.24783523	      0.28833802	     -0.48347601	     -7.82467033	      0.28833802	     -0.39815671	     -6.35750185	      0.24182730	     -0.36971695	     -3.91199285	      0.18369482	     -0.34127718	    -48.90264914	      1.34150585	     -2.53077506	      0.00000000	      0.00000000	     92.15481685	    -15.27989006	     30.05713787	     32.58098368	     54.42304589	     21.40722969	     23.07409608	     92.44676376	    -19.25861189	     36.76136117	     31.91770288	     45.57066782	     27.09306136	     16.79498549
